<?xml version="1.0" encoding="UTF-8" standalone="no"?>
<!-- Created with Inkscape (http://www.inkscape.org/) -->

<svg
   width="302.41876mm"
   height="138.1125mm"
   viewBox="0 0 302.41876 138.1125"
   version="1.1"
   id="svg1"
   xml:space="preserve"
   xmlns="http://www.w3.org/2000/svg"
   xmlns:svg="http://www.w3.org/2000/svg"
   xmlns:ns3="http://www.iki.fi/pav/software/textext/"><defs
     id="defs1"><marker
       style="overflow:visible"
       id="DartArrow"
       refX="0"
       refY="0"
       orient="auto-start-reverse"
       markerWidth="1"
       markerHeight="1"
       viewBox="0 0 1 1"
       preserveAspectRatio="xMidYMid"><path
         style="fill:context-stroke;fill-rule:evenodd;stroke:none"
         d="M 0,0 5,-5 -12.5,0 5,5 Z"
         transform="scale(-0.5)"
         id="path6" /></marker><marker
       style="overflow:visible"
       id="ArrowWide"
       refX="0"
       refY="0"
       orient="auto-start-reverse"
       markerWidth="1"
       markerHeight="1"
       viewBox="0 0 1 1"
       preserveAspectRatio="xMidYMid"><path
         style="fill:none;stroke:context-stroke;stroke-width:1;stroke-linecap:butt"
         d="M 3,-3 0,0 3,3"
         transform="rotate(180,0.125,0)"
         id="path76" /></marker><marker
       style="overflow:visible"
       id="marker75"
       refX="0"
       refY="0"
       orient="auto-start-reverse"
       markerWidth="1"
       markerHeight="1"
       viewBox="0 0 1 1"
       preserveAspectRatio="xMidYMid"><path
         style="fill:none;stroke:context-stroke;stroke-width:1;stroke-linecap:round"
         d="M 3,-3 0,0 3,3"
         transform="rotate(180,0.125,0)"
         id="path75" /></marker><marker
       style="overflow:visible"
       id="marker74"
       refX="0"
       refY="0"
       orient="auto-start-reverse"
       markerWidth="1"
       markerHeight="1"
       viewBox="0 0 1 1"
       preserveAspectRatio="xMidYMid"><path
         style="fill:none;stroke:context-stroke;stroke-width:1;stroke-linecap:round"
         d="M 3,-3 0,0 3,3"
         transform="rotate(180,0.125,0)"
         id="path74" /></marker><marker
       style="overflow:visible"
       id="marker73"
       refX="0"
       refY="0"
       orient="auto-start-reverse"
       markerWidth="1"
       markerHeight="1"
       viewBox="0 0 1 1"
       preserveAspectRatio="xMidYMid"><path
         style="fill:none;stroke:context-stroke;stroke-width:1;stroke-linecap:round"
         d="M 3,-3 0,0 3,3"
         transform="rotate(180,0.125,0)"
         id="path73" /></marker><marker
       style="overflow:visible"
       id="marker72"
       refX="0"
       refY="0"
       orient="auto-start-reverse"
       markerWidth="1"
       markerHeight="1"
       viewBox="0 0 1 1"
       preserveAspectRatio="xMidYMid"><path
         style="fill:none;stroke:context-stroke;stroke-width:1;stroke-linecap:round"
         d="M 3,-3 0,0 3,3"
         transform="rotate(180,0.125,0)"
         id="path72" /></marker><marker
       style="overflow:visible"
       id="marker71"
       refX="0"
       refY="0"
       orient="auto-start-reverse"
       markerWidth="1"
       markerHeight="1"
       viewBox="0 0 1 1"
       preserveAspectRatio="xMidYMid"><path
         style="fill:none;stroke:context-stroke;stroke-width:1;stroke-linecap:round"
         d="M 3,-3 0,0 3,3"
         transform="rotate(180,0.125,0)"
         id="path71" /></marker><marker
       style="overflow:visible"
       id="ArrowWideRounded"
       refX="0"
       refY="0"
       orient="auto-start-reverse"
       markerWidth="1"
       markerHeight="1"
       viewBox="0 0 1 1"
       preserveAspectRatio="xMidYMid"><path
         style="fill:none;stroke:context-stroke;stroke-width:1;stroke-linecap:round"
         d="M 3,-3 0,0 3,3"
         transform="rotate(180,0.125,0)"
         id="path69" /></marker></defs><rect
     style="opacity:1;fill:#ffffff;fill-opacity:1;stroke:none;stroke-width:0.720002;stroke-linecap:square;stroke-linejoin:miter;stroke-miterlimit:0;stroke-dasharray:none;stroke-dashoffset:0;paint-order:stroke markers fill"
     id="rect1319"
     width="302.41879"
     height="138.11249"
     x="-3.6420439e-05"
     y="-8.7432463e-06" /><rect
     style="fill:none;stroke:#8b4513;stroke-width:2.45254;stroke-linecap:round;stroke-linejoin:round;stroke-miterlimit:0;stroke-dasharray:none;paint-order:stroke fill markers"
     id="rect320"
     width="120.33527"
     height="113.01099"
     x="89.136795"
     y="12.457633"
     ry="13.838008" /><rect
     style="fill:none;stroke:#8b4513;stroke-width:2.45254;stroke-linecap:round;stroke-linejoin:round;stroke-miterlimit:0;stroke-dasharray:none;paint-order:stroke fill markers"
     id="rect321"
     width="80.545517"
     height="75.61554"
     x="109.0316"
     y="31.155386"
     ry="13.838008" /><g
     id="g328"
     style="stroke:#000000;stroke-width:0.505853;stroke-dasharray:none"
     transform="matrix(1.9768583,0,0,1.9768583,378.34202,-53.24958)"><path
       style="fill:none;stroke:#000000;stroke-width:0.505853;stroke-linecap:butt;stroke-linejoin:bevel;stroke-miterlimit:0;stroke-dasharray:none;paint-order:stroke markers fill"
       d="m -84.82317,48.138085 c 0,0 -7.81203,0 -11.39706,0 -2.1627,0 -3.07315,2.637929 0.007,2.651923"
       id="path321" /><path
       style="fill:none;stroke:#000000;stroke-width:0.505853;stroke-linecap:butt;stroke-linejoin:bevel;stroke-miterlimit:0;stroke-dasharray:none;paint-order:stroke markers fill"
       d="m -84.81617,52.220142 c 2.1627,0 3.07315,2.637929 -0.007,2.651923 h -11.39706 c -2.1627,0 -3.07315,2.637929 0.007,2.651923"
       id="path322" /><path
       style="fill:none;stroke:#000000;stroke-width:0.505853;stroke-linecap:butt;stroke-linejoin:bevel;stroke-miterlimit:0;stroke-dasharray:none;paint-order:stroke markers fill"
       d="m -84.81617,52.186087 c 2.1627,0 3.07315,2.637929 -0.007,2.651923 h -11.39706 c -2.1627,0 -3.07315,2.637929 0.007,2.651923"
       id="path323" /><path
       style="fill:none;stroke:#000000;stroke-width:0.505853;stroke-linecap:butt;stroke-linejoin:bevel;stroke-miterlimit:0;stroke-dasharray:none;paint-order:stroke markers fill"
       d="m -84.81617,58.886012 c 2.1627,0 3.07315,2.637929 -0.007,2.651923 h -11.39706 c -2.1627,0 -3.07315,2.637929 0.007,2.651923"
       id="path324" /><path
       style="fill:none;stroke:#000000;stroke-width:0.505853;stroke-linecap:butt;stroke-linejoin:bevel;stroke-miterlimit:0;stroke-dasharray:none;paint-order:stroke markers fill"
       d="m -84.81617,65.585937 c 2.1627,0 3.07315,2.637929 -0.007,2.651922 h -11.39706 c -2.1627,0 -3.07315,2.637929 0.007,2.651923"
       id="path325" /><path
       style="fill:none;stroke:#000000;stroke-width:0.505853;stroke-linecap:butt;stroke-linejoin:bevel;stroke-miterlimit:0;stroke-dasharray:none;paint-order:stroke markers fill"
       d="m -84.81617,72.285862 c 2.1627,0 3.07315,2.637929 -0.007,2.651923 h -11.39706 c -2.1627,0 -3.07315,2.637929 0.007,2.651923"
       id="path326" /><path
       style="fill:#006400;fill-opacity:1;stroke:#000000;stroke-width:0.505853;stroke-linecap:square;stroke-linejoin:round;stroke-miterlimit:0;stroke-dasharray:none;paint-order:stroke markers fill"
       d="m -84.823169,48.138085 h 31.409351"
       id="path327" /><path
       style="fill:#006400;fill-opacity:1;stroke:#000000;stroke-width:0.505853;stroke-linecap:square;stroke-linejoin:miter;stroke-miterlimit:0;stroke-dasharray:none;paint-order:stroke markers fill"
       d="m -84.351277,77.589703 h 30.944253"
       id="path328" /></g><g
     id="g338"
     transform="matrix(-1.9768583,0,0,1.9768583,-79.775732,-53.24958)"
     style="stroke:#000000;stroke-width:0.505853;stroke-dasharray:none"><path
       style="fill:none;stroke:#000000;stroke-width:0.505853;stroke-linecap:butt;stroke-linejoin:bevel;stroke-miterlimit:0;stroke-dasharray:none;paint-order:stroke markers fill"
       d="m -84.82317,48.138085 c 0,0 -7.81203,0 -11.39706,0 -2.1627,0 -3.07315,2.637929 0.007,2.651923"
       id="path331" /><path
       style="fill:none;stroke:#000000;stroke-width:0.505853;stroke-linecap:butt;stroke-linejoin:bevel;stroke-miterlimit:0;stroke-dasharray:none;paint-order:stroke markers fill"
       d="m -84.81617,52.220142 c 2.1627,0 3.07315,2.637929 -0.007,2.651923 h -11.39706 c -2.1627,0 -3.07315,2.637929 0.007,2.651923"
       id="path332" /><path
       style="fill:none;stroke:#000000;stroke-width:0.505853;stroke-linecap:butt;stroke-linejoin:bevel;stroke-miterlimit:0;stroke-dasharray:none;paint-order:stroke markers fill"
       d="m -84.81617,52.186087 c 2.1627,0 3.07315,2.637929 -0.007,2.651923 h -11.39706 c -2.1627,0 -3.07315,2.637929 0.007,2.651923"
       id="path333" /><path
       style="fill:none;stroke:#000000;stroke-width:0.505853;stroke-linecap:butt;stroke-linejoin:bevel;stroke-miterlimit:0;stroke-dasharray:none;paint-order:stroke markers fill"
       d="m -84.81617,58.886012 c 2.1627,0 3.07315,2.637929 -0.007,2.651923 h -11.39706 c -2.1627,0 -3.07315,2.637929 0.007,2.651923"
       id="path334" /><path
       style="fill:none;stroke:#000000;stroke-width:0.505853;stroke-linecap:butt;stroke-linejoin:bevel;stroke-miterlimit:0;stroke-dasharray:none;paint-order:stroke markers fill"
       d="m -84.81617,65.585937 c 2.1627,0 3.07315,2.637929 -0.007,2.651922 h -11.39706 c -2.1627,0 -3.07315,2.637929 0.007,2.651923"
       id="path335" /><path
       style="fill:none;stroke:#000000;stroke-width:0.505853;stroke-linecap:butt;stroke-linejoin:bevel;stroke-miterlimit:0;stroke-dasharray:none;paint-order:stroke markers fill"
       d="m -84.81617,72.285862 c 2.1627,0 3.07315,2.637929 -0.007,2.651923 h -11.39706 c -2.1627,0 -3.07315,2.637929 0.007,2.651923"
       id="path336" /><path
       style="fill:#006400;fill-opacity:1;stroke:#000000;stroke-width:0.505853;stroke-linecap:square;stroke-linejoin:round;stroke-miterlimit:0;stroke-dasharray:none;paint-order:stroke markers fill"
       d="m -84.823169,48.138085 h 31.409351"
       id="path337" /><path
       style="fill:#006400;fill-opacity:1;stroke:#000000;stroke-width:0.505853;stroke-linecap:square;stroke-linejoin:miter;stroke-miterlimit:0;stroke-dasharray:none;paint-order:stroke markers fill"
       d="m -84.351277,77.589703 h 30.944253"
       id="path338" /></g><ellipse
     style="fill:none;fill-opacity:1;stroke:#6a5acd;stroke-width:0.626663;stroke-linecap:square;stroke-linejoin:miter;stroke-miterlimit:0;stroke-dasharray:1.25332, 1.25332;stroke-dashoffset:0;marker-end:url(#marker74);paint-order:stroke markers fill"
     id="ellipse341"
     ry="40.732033"
     rx="13.339044"
     cy="67.189384"
     cx="117.59041" /><ellipse
     style="fill:none;fill-opacity:1;stroke:#6a5acd;stroke-width:0.626663;stroke-linecap:square;stroke-linejoin:miter;stroke-miterlimit:0;stroke-dasharray:1.25332, 1.25332;stroke-dashoffset:0;marker-end:url(#marker72);paint-order:stroke markers fill"
     id="ellipse342"
     ry="48.759209"
     rx="18.34687"
     cy="67.188042"
     cx="119.24019" /><ellipse
     style="fill:none;fill-opacity:1;stroke:#6a5acd;stroke-width:0.626663;stroke-linecap:square;stroke-linejoin:miter;stroke-miterlimit:0;stroke-dasharray:1.25332, 1.25332;stroke-dashoffset:0;marker-end:url(#marker75);paint-order:stroke markers fill"
     id="ellipse343"
     ry="40.732033"
     rx="13.339044"
     cy="68.402336"
     cx="-81.267319"
     transform="scale(-1,1)" /><ellipse
     style="fill:none;fill-opacity:1;stroke:#6a5acd;stroke-width:0.626663;stroke-linecap:square;stroke-linejoin:miter;stroke-miterlimit:0;stroke-dasharray:1.25332, 1.25332;stroke-dashoffset:0;marker-end:url(#ArrowWide);paint-order:stroke markers fill"
     id="ellipse344"
     ry="48.759209"
     rx="18.34687"
     cy="68.400993"
     cx="-79.61747"
     transform="scale(-1,1)" /><ellipse
     style="fill:none;fill-opacity:1;stroke:#ff6347;stroke-width:0.626663;stroke-linecap:square;stroke-linejoin:miter;stroke-miterlimit:0;stroke-dasharray:1.25332, 1.25332;stroke-dashoffset:0;marker-end:url(#marker73);paint-order:stroke markers fill"
     id="ellipse345"
     ry="40.732033"
     rx="13.339044"
     cy="67.189384"
     cx="218.79932" /><ellipse
     style="fill:none;fill-opacity:1;stroke:#ff6347;stroke-width:0.626663;stroke-linecap:square;stroke-linejoin:miter;stroke-miterlimit:0;stroke-dasharray:1.25332, 1.25332;stroke-dashoffset:0;marker-end:url(#marker72);paint-order:stroke markers fill"
     id="ellipse346"
     ry="48.759209"
     rx="18.34687"
     cy="67.188042"
     cx="220.4491" /><ellipse
     style="fill:none;fill-opacity:1;stroke:#ff6347;stroke-width:0.626663;stroke-linecap:square;stroke-linejoin:miter;stroke-miterlimit:0;stroke-dasharray:1.25332, 1.25332;stroke-dashoffset:0;marker-end:url(#marker72);paint-order:stroke markers fill"
     id="ellipse347"
     ry="40.732033"
     rx="13.339044"
     cy="68.402336"
     cx="-182.47632"
     transform="scale(-1,1)" /><ellipse
     style="fill:none;fill-opacity:1;stroke:#ff6347;stroke-width:0.626663;stroke-linecap:square;stroke-linejoin:miter;stroke-miterlimit:0;stroke-dasharray:1.25332, 1.25332;stroke-dashoffset:0;marker-end:url(#marker72);paint-order:stroke markers fill"
     id="ellipse348"
     ry="48.759209"
     rx="18.34687"
     cy="68.400993"
     cx="-180.82651"
     transform="scale(-1,1)" /><g
     id="g358"
     transform="matrix(0.69739214,0,0,0.69739214,57.799818,114.6984)"
     style="fill:#6a5acd"><g
       fill="#000000"
       fill-opacity="1"
       id="g354"
       transform="translate(-81.987033,-258.04004)"
       style="fill:#6a5acd">
    <g
   transform="translate(133.768,146.72)"
   id="g353"
   style="fill:#6a5acd"><path
   d="M 3.984375,-1.34375 C 5.515625,-1.46875 6.625,-2.390625 6.625,-3.40625 6.625,-4.4375 5.5,-5.34375 3.984375,-5.46875 v -0.546875 c 0,-0.34375 0,-0.484375 0.9375,-0.484375 H 5.25 v -0.3125 c -0.359375,0.03125 -1.265625,0.03125 -1.6875,0.03125 -0.40625,0 -1.328125,0 -1.6875,-0.03125 V -6.5 h 0.328125 c 0.953125,0 0.953125,0.125 0.953125,0.484375 V -5.46875 C 1.625,-5.3125 0.5625,-4.390625 0.5625,-3.40625 c 0,1.03125 1.109375,1.90625 2.59375,2.0625 v 0.5625 c 0,0.328125 0,0.46875 -0.953125,0.46875 H 1.875 V 0 c 0.359375,-0.03125 1.28125,-0.03125 1.6875,-0.03125 0.40625,0 1.328125,0 1.6875,0.03125 V -0.3125 H 4.921875 c -0.9375,0 -0.9375,-0.125 -0.9375,-0.46875 z M 3.15625,-1.578125 C 1.734375,-1.765625 1.5625,-2.78125 1.5625,-3.40625 c 0,-0.515625 0.09375,-1.625 1.59375,-1.828125 z M 3.984375,-5.25 c 1.375,0.171875 1.640625,1.078125 1.640625,1.84375 0,0.59375 -0.140625,1.65625 -1.640625,1.84375 z m 0,0"
   id="path352"
   style="fill:#6a5acd" />
      </g></g><g
       fill="#000000"
       fill-opacity="1"
       id="g357"
       transform="translate(-81.987033,-258.04004)"
       style="fill:#6a5acd">
    <g
   transform="translate(140.964,148.214)"
   id="g355"
   style="fill:#6a5acd"><path
   d="m 3,-2.625 c -0.171875,0.046875 -0.296875,0.1875 -0.296875,0.328125 0,0.171875 0.140625,0.234375 0.234375,0.234375 0.078125,0 0.34375,-0.046875 0.34375,-0.40625 0,-0.453125 -0.5,-0.609375 -0.9375,-0.609375 -1.078125,0 -1.28125,0.8125 -1.28125,1.015625 0,0.265625 0.15625,0.4375 0.25,0.515625 0.171875,0.140625 0.296875,0.171875 0.78125,0.25 0.15625,0.03125 0.59375,0.109375 0.59375,0.453125 0,0.125 -0.078125,0.390625 -0.359375,0.5625 C 2.046875,-0.125 1.703125,-0.125 1.625,-0.125 1.34375,-0.125 0.953125,-0.1875 0.78125,-0.421875 1.015625,-0.453125 1.171875,-0.625 1.171875,-0.8125 c 0,-0.171875 -0.125,-0.265625 -0.265625,-0.265625 -0.203125,0 -0.40625,0.171875 -0.40625,0.46875 0,0.421875 0.4375,0.671875 1.109375,0.671875 1.296875,0 1.53125,-0.875 1.53125,-1.140625 0,-0.640625 -0.703125,-0.765625 -0.96875,-0.8125 -0.0625,-0.015625 -0.234375,-0.046875 -0.28125,-0.0625 -0.25,-0.046875 -0.375,-0.1875 -0.375,-0.34375 0,-0.15625 0.125,-0.34375 0.28125,-0.453125 0.1875,-0.109375 0.421875,-0.125 0.546875,-0.125 0.140625,0 0.5,0.015625 0.65625,0.25 z m 0,0"
   id="path354"
   style="fill:#6a5acd" />
      </g><g
   transform="translate(144.724,148.214)"
   id="g356"
   style="fill:#6a5acd"><path
   d="m 3,-2.625 c -0.171875,0.046875 -0.296875,0.1875 -0.296875,0.328125 0,0.171875 0.140625,0.234375 0.234375,0.234375 0.078125,0 0.34375,-0.046875 0.34375,-0.40625 0,-0.453125 -0.5,-0.609375 -0.9375,-0.609375 -1.078125,0 -1.28125,0.8125 -1.28125,1.015625 0,0.265625 0.15625,0.4375 0.25,0.515625 0.171875,0.140625 0.296875,0.171875 0.78125,0.25 0.15625,0.03125 0.59375,0.109375 0.59375,0.453125 0,0.125 -0.078125,0.390625 -0.359375,0.5625 C 2.046875,-0.125 1.703125,-0.125 1.625,-0.125 1.34375,-0.125 0.953125,-0.1875 0.78125,-0.421875 1.015625,-0.453125 1.171875,-0.625 1.171875,-0.8125 c 0,-0.171875 -0.125,-0.265625 -0.265625,-0.265625 -0.203125,0 -0.40625,0.171875 -0.40625,0.46875 0,0.421875 0.4375,0.671875 1.109375,0.671875 1.296875,0 1.53125,-0.875 1.53125,-1.140625 0,-0.640625 -0.703125,-0.765625 -0.96875,-0.8125 -0.0625,-0.015625 -0.234375,-0.046875 -0.28125,-0.0625 -0.25,-0.046875 -0.375,-0.1875 -0.375,-0.34375 0,-0.15625 0.125,-0.34375 0.28125,-0.453125 0.1875,-0.109375 0.421875,-0.125 0.546875,-0.125 0.140625,0 0.5,0.015625 0.65625,0.25 z m 0,0"
   id="path355"
   style="fill:#6a5acd" />
      </g></g></g><g
     id="g365"
     transform="matrix(0.69739214,0,0,0.69739214,183.93872,25.30913)"
     style="fill:#ff6347"><g
       fill="#000000"
       fill-opacity="1"
       id="g360"
       transform="translate(-115.98268,-141.89782)"
       style="fill:#ff6347">
    <g
   transform="translate(133.768,158.675)"
   id="g359"
   style="fill:#ff6347"><path
   d="M 3.984375,-1.34375 C 5.515625,-1.46875 6.625,-2.390625 6.625,-3.40625 6.625,-4.4375 5.5,-5.34375 3.984375,-5.46875 v -0.546875 c 0,-0.34375 0,-0.484375 0.9375,-0.484375 H 5.25 v -0.3125 c -0.359375,0.03125 -1.265625,0.03125 -1.6875,0.03125 -0.40625,0 -1.328125,0 -1.6875,-0.03125 V -6.5 h 0.328125 c 0.953125,0 0.953125,0.125 0.953125,0.484375 V -5.46875 C 1.625,-5.3125 0.5625,-4.390625 0.5625,-3.40625 c 0,1.03125 1.109375,1.90625 2.59375,2.0625 v 0.5625 c 0,0.328125 0,0.46875 -0.953125,0.46875 H 1.875 V 0 c 0.359375,-0.03125 1.28125,-0.03125 1.6875,-0.03125 0.40625,0 1.328125,0 1.6875,0.03125 V -0.3125 H 4.921875 c -0.9375,0 -0.9375,-0.125 -0.9375,-0.46875 z M 3.15625,-1.578125 C 1.734375,-1.765625 1.5625,-2.78125 1.5625,-3.40625 c 0,-0.515625 0.09375,-1.625 1.59375,-1.828125 z M 3.984375,-5.25 c 1.375,0.171875 1.640625,1.078125 1.640625,1.84375 0,0.59375 -0.140625,1.65625 -1.640625,1.84375 z m 0,0"
   id="path358"
   style="fill:#ff6347" />
      </g></g><g
       fill="#000000"
       fill-opacity="1"
       id="g362"
       transform="translate(-115.98268,-141.89782)"
       style="fill:#ff6347">
    <g
   transform="translate(140.964,160.169)"
   id="g361"
   style="fill:#ff6347"><path
   d="M 1.96875,-4.625 C 1.96875,-4.640625 2,-4.734375 2,-4.734375 2,-4.78125 1.96875,-4.84375 1.875,-4.84375 c -0.140625,0 -0.71875,0.0625 -0.890625,0.078125 -0.046875,0 -0.140625,0.015625 -0.140625,0.15625 0,0.09375 0.09375,0.09375 0.171875,0.09375 0.34375,0 0.34375,0.0625 0.34375,0.109375 0,0.046875 -0.015625,0.09375 -0.03125,0.15625 l -0.875,3.4375 C 0.4375,-0.734375 0.4375,-0.65625 0.4375,-0.59375 c 0,0.453125 0.390625,0.65625 0.71875,0.65625 0.171875,0 0.390625,-0.046875 0.5625,-0.359375 C 1.875,-0.5625 1.96875,-0.96875 1.96875,-1 c 0,-0.09375 -0.09375,-0.09375 -0.109375,-0.09375 -0.109375,0 -0.125,0.046875 -0.140625,0.171875 C 1.625,-0.578125 1.484375,-0.125 1.1875,-0.125 1,-0.125 0.953125,-0.296875 0.953125,-0.46875 0.953125,-0.546875 0.96875,-0.671875 1,-0.75 Z m 0,0"
   id="path360"
   style="fill:#ff6347" />
      </g></g><g
       fill="#000000"
       fill-opacity="1"
       id="g364"
       transform="translate(-115.98268,-141.89782)"
       style="fill:#ff6347">
    <g
   transform="translate(143.525,160.169)"
   id="g363"
   style="fill:#ff6347"><path
   d="M 1.96875,-4.625 C 1.96875,-4.640625 2,-4.734375 2,-4.734375 2,-4.78125 1.96875,-4.84375 1.875,-4.84375 c -0.140625,0 -0.71875,0.0625 -0.890625,0.078125 -0.046875,0 -0.140625,0.015625 -0.140625,0.15625 0,0.09375 0.09375,0.09375 0.171875,0.09375 0.34375,0 0.34375,0.0625 0.34375,0.109375 0,0.046875 -0.015625,0.09375 -0.03125,0.15625 l -0.875,3.4375 C 0.4375,-0.734375 0.4375,-0.65625 0.4375,-0.59375 c 0,0.453125 0.390625,0.65625 0.71875,0.65625 0.171875,0 0.390625,-0.046875 0.5625,-0.359375 C 1.875,-0.5625 1.96875,-0.96875 1.96875,-1 c 0,-0.09375 -0.09375,-0.09375 -0.109375,-0.09375 -0.109375,0 -0.125,0.046875 -0.140625,0.171875 C 1.625,-0.578125 1.484375,-0.125 1.1875,-0.125 1,-0.125 0.953125,-0.296875 0.953125,-0.46875 0.953125,-0.546875 0.96875,-0.671875 1,-0.75 Z m 0,0"
   id="path362"
   style="fill:#ff6347" />
      </g></g></g><g
     id="g370"
     transform="matrix(0.69739214,0,0,0.69739214,109.89837,84.0659)"
     style="fill:#006400"><g
       fill="#000000"
       fill-opacity="1"
       id="g367"
       transform="translate(-81.987033,-258.04004)"
       style="fill:#006400">
    <g
   transform="translate(133.768,170.63)"
   id="g366"
   style="fill:#006400"><path
   d="M 3.984375,-1.34375 C 5.515625,-1.46875 6.625,-2.390625 6.625,-3.40625 6.625,-4.4375 5.5,-5.34375 3.984375,-5.46875 v -0.546875 c 0,-0.34375 0,-0.484375 0.9375,-0.484375 H 5.25 v -0.3125 c -0.359375,0.03125 -1.265625,0.03125 -1.6875,0.03125 -0.40625,0 -1.328125,0 -1.6875,-0.03125 V -6.5 h 0.328125 c 0.953125,0 0.953125,0.125 0.953125,0.484375 V -5.46875 C 1.625,-5.3125 0.5625,-4.390625 0.5625,-3.40625 c 0,1.03125 1.109375,1.90625 2.59375,2.0625 v 0.5625 c 0,0.328125 0,0.46875 -0.953125,0.46875 H 1.875 V 0 c 0.359375,-0.03125 1.28125,-0.03125 1.6875,-0.03125 0.40625,0 1.328125,0 1.6875,0.03125 V -0.3125 H 4.921875 c -0.9375,0 -0.9375,-0.125 -0.9375,-0.46875 z M 3.15625,-1.578125 C 1.734375,-1.765625 1.5625,-2.78125 1.5625,-3.40625 c 0,-0.515625 0.09375,-1.625 1.59375,-1.828125 z M 3.984375,-5.25 c 1.375,0.171875 1.640625,1.078125 1.640625,1.84375 0,0.59375 -0.140625,1.65625 -1.640625,1.84375 z m 0,0"
   id="path365"
   style="fill:#006400" />
      </g></g><g
       fill="#000000"
       fill-opacity="1"
       id="g369"
       transform="matrix(0.42701916,0,0,0.42701916,-1.0472578,-160.20965)"
       style="fill:#006400">
    <g
   transform="translate(140.964,170.63)"
   id="g368"
   style="fill:#006400"><path
   d="m 0.875,-0.59375 c -0.03125,0.15625 -0.09375,0.390625 -0.09375,0.4375 0,0.171875 0.140625,0.265625 0.296875,0.265625 0.125,0 0.296875,-0.078125 0.375,-0.28125 0,-0.015625 0.125,-0.484375 0.1875,-0.734375 l 0.21875,-0.890625 C 1.90625,-2.03125 1.96875,-2.25 2.03125,-2.46875 c 0.03125,-0.171875 0.109375,-0.46875 0.125,-0.5 0.140625,-0.3125 0.671875,-1.21875 1.625,-1.21875 0.453125,0 0.53125,0.375 0.53125,0.703125 0,0.25 -0.0625,0.53125 -0.140625,0.828125 L 3.890625,-1.5 3.6875,-0.75 c -0.03125,0.203125 -0.125,0.546875 -0.125,0.59375 0,0.171875 0.140625,0.265625 0.28125,0.265625 0.3125,0 0.375,-0.25 0.453125,-0.5625 0.140625,-0.5625 0.515625,-2.015625 0.59375,-2.40625 0.03125,-0.125 0.5625,-1.328125 1.65625,-1.328125 0.421875,0 0.53125,0.34375 0.53125,0.703125 0,0.5625 -0.421875,1.703125 -0.625,2.234375 -0.078125,0.234375 -0.125,0.34375 -0.125,0.546875 0,0.46875 0.34375,0.8125 0.8125,0.8125 0.9375,0 1.3125,-1.453125 1.3125,-1.53125 0,-0.109375 -0.09375,-0.109375 -0.125,-0.109375 -0.09375,0 -0.09375,0.03125 -0.140625,0.1875 -0.15625,0.53125 -0.46875,1.234375 -1.015625,1.234375 -0.171875,0 -0.25,-0.09375 -0.25,-0.328125 0,-0.25 0.09375,-0.484375 0.1875,-0.703125 0.1875,-0.53125 0.609375,-1.625 0.609375,-2.203125 0,-0.640625 -0.40625,-1.0625 -1.15625,-1.0625 -0.734375,0 -1.25,0.4375 -1.625,0.96875 0,-0.125 -0.03125,-0.46875 -0.3125,-0.703125 -0.25,-0.21875 -0.5625,-0.265625 -0.8125,-0.265625 -0.90625,0 -1.390625,0.640625 -1.5625,0.875 -0.046875,-0.578125 -0.46875,-0.875 -0.921875,-0.875 -0.453125,0 -0.640625,0.390625 -0.734375,0.5625 -0.171875,0.359375 -0.296875,0.9375 -0.296875,0.96875 0,0.109375 0.09375,0.109375 0.109375,0.109375 0.109375,0 0.109375,-0.015625 0.171875,-0.234375 0.171875,-0.703125 0.375,-1.1875 0.734375,-1.1875 0.15625,0 0.296875,0.078125 0.296875,0.453125 0,0.21875 -0.03125,0.328125 -0.15625,0.84375 z m 0,0"
   id="path367"
   style="fill:#006400" />
      </g></g></g><path
     style="fill:none;fill-opacity:1;stroke:#228b22;stroke-width:0.600015;stroke-linecap:square;stroke-linejoin:miter;stroke-miterlimit:0;stroke-dasharray:1.20002, 1.20002;stroke-dashoffset:0;marker-mid:url(#ArrowWideRounded);marker-end:url(#marker71);paint-order:stroke markers fill"
     d="m 99.107288,71.89828 c 1.622462,-38.50354 0.80159,-44.37771 11.840832,-44.26896 11.03929,0.10884 76.85287,-1.74634 83.07329,1.91947 2.15405,1.26944 4.50804,19.76185 5.4376,39.07534 1.03851,21.5761 0.46774,44.17691 -0.72471,44.9343 -4.71289,2.9934 -98.21129,3.84989 -98.21129,-1.74983 0,-5.59973 -1.415722,-39.91032 -1.415722,-39.91032 z"
     id="path381" /><path
     style="fill:#ff6347;fill-opacity:1;stroke:#000000;stroke-width:0.72;stroke-linecap:square;stroke-linejoin:miter;stroke-miterlimit:0;stroke-dasharray:none;stroke-dashoffset:0;marker-end:url(#DartArrow);paint-order:stroke markers fill"
     d="m 38.226108,41.91257 h 3.79207"
     id="path382" /><path
     style="fill:#ff6347;fill-opacity:1;stroke:#000000;stroke-width:0.72;stroke-linecap:square;stroke-linejoin:miter;stroke-miterlimit:0;stroke-dasharray:none;stroke-dashoffset:0;marker-end:url(#DartArrow);paint-order:stroke markers fill"
     d="m 246.13603,41.91257 h 3.79206"
     id="path383" /><circle
     style="fill:#000000;fill-opacity:1;stroke:#000000;stroke-width:1.21972;stroke-linecap:square;stroke-linejoin:miter;stroke-miterlimit:0;stroke-dasharray:none;stroke-dashoffset:0;paint-order:stroke markers fill"
     id="circle383"
     cx="214.63165"
     cy="38.094841"
     r="1.3076093" /><circle
     style="fill:#000000;fill-opacity:1;stroke:#000000;stroke-width:1.21972;stroke-linecap:square;stroke-linejoin:miter;stroke-miterlimit:0;stroke-dasharray:none;stroke-dashoffset:0;paint-order:stroke markers fill"
     id="circle384"
     cx="84.663284"
     cy="37.06469"
     r="1.3076093" /><g
     id="g385"
     transform="matrix(2.0901937,0,0,2.0901937,953.40541,-903.95556)"><g
       fill="#000000"
       fill-opacity="1"
       id="g832"
       transform="matrix(0.352778,0,0,0.352778,-483.94322,398.46836)">
    <g
   transform="translate(133.768,146.72)"
   id="g6753"><path
   d="M 3.734375,-6.046875 C 3.8125,-6.40625 3.84375,-6.5 4.640625,-6.5 c 0.234375,0 0.3125,0 0.3125,-0.1875 0,-0.125 -0.109375,-0.125 -0.140625,-0.125 -0.296875,0 -1.03125,0.03125 -1.328125,0.03125 -0.296875,0 -1.015625,-0.03125 -1.328125,-0.03125 -0.0625,0 -0.1875,0 -0.1875,0.203125 C 1.96875,-6.5 2.046875,-6.5 2.25,-6.5 c 0.40625,0 0.6875,0 0.6875,0.1875 0,0.046875 0,0.078125 -0.03125,0.15625 l -1.34375,5.375 c -0.09375,0.375 -0.109375,0.46875 -0.90625,0.46875 -0.234375,0 -0.3125,0 -0.3125,0.203125 C 0.34375,0 0.453125,0 0.484375,0 0.78125,0 1.5,-0.03125 1.796875,-0.03125 2.09375,-0.03125 2.828125,0 3.125,0 c 0.078125,0 0.203125,0 0.203125,-0.1875 0,-0.125 -0.078125,-0.125 -0.296875,-0.125 -0.1875,0 -0.234375,0 -0.421875,-0.015625 -0.21875,-0.015625 -0.25,-0.0625 -0.25,-0.171875 0,-0.078125 0.015625,-0.15625 0.03125,-0.234375 z m 0,0"
   id="path3528" />
      </g></g><g
       fill="#000000"
       fill-opacity="1"
       id="g268"
       transform="matrix(0.352778,0,0,0.352778,-483.94322,398.46836)">
    <g
   transform="translate(138.148,148.214)"
   id="g8801"><path
   d="m 2.328125,-4.4375 c 0,-0.1875 0,-0.1875 -0.203125,-0.1875 -0.453125,0.4375 -1.078125,0.4375 -1.359375,0.4375 v 0.25 c 0.15625,0 0.625,0 1,-0.1875 v 3.546875 c 0,0.234375 0,0.328125 -0.6875,0.328125 H 0.8125 V 0 c 0.125,0 0.984375,-0.03125 1.234375,-0.03125 0.21875,0 1.09375,0.03125 1.25,0.03125 V -0.25 H 3.03125 c -0.703125,0 -0.703125,-0.09375 -0.703125,-0.328125 z m 0,0"
   id="path6585" />
      </g></g></g><g
     id="g386"
     transform="matrix(2.0901937,0,0,2.0901937,1161.5484,-912.77087)"><g
       fill="#000000"
       fill-opacity="1"
       id="g1039"
       transform="matrix(0.352778,0,0,0.352778,-483.94322,398.46836)">
    <g
   transform="translate(133.768,158.675)"
   id="g9252"><path
   d="M 3.734375,-6.046875 C 3.8125,-6.40625 3.84375,-6.5 4.640625,-6.5 c 0.234375,0 0.3125,0 0.3125,-0.1875 0,-0.125 -0.109375,-0.125 -0.140625,-0.125 -0.296875,0 -1.03125,0.03125 -1.328125,0.03125 -0.296875,0 -1.015625,-0.03125 -1.328125,-0.03125 -0.0625,0 -0.1875,0 -0.1875,0.203125 C 1.96875,-6.5 2.046875,-6.5 2.25,-6.5 c 0.40625,0 0.6875,0 0.6875,0.1875 0,0.046875 0,0.078125 -0.03125,0.15625 l -1.34375,5.375 c -0.09375,0.375 -0.109375,0.46875 -0.90625,0.46875 -0.234375,0 -0.3125,0 -0.3125,0.203125 C 0.34375,0 0.453125,0 0.484375,0 0.78125,0 1.5,-0.03125 1.796875,-0.03125 2.09375,-0.03125 2.828125,0 3.125,0 c 0.078125,0 0.203125,0 0.203125,-0.1875 0,-0.125 -0.078125,-0.125 -0.296875,-0.125 -0.1875,0 -0.234375,0 -0.421875,-0.015625 -0.21875,-0.015625 -0.25,-0.0625 -0.25,-0.171875 0,-0.078125 0.015625,-0.15625 0.03125,-0.234375 z m 0,0"
   id="path712" />
      </g></g><g
       fill="#000000"
       fill-opacity="1"
       id="g5688"
       transform="matrix(0.352778,0,0,0.352778,-483.94322,398.46836)">
    <g
   transform="translate(138.148,160.169)"
   id="g4422"><path
   d="M 3.515625,-1.265625 H 3.28125 c -0.015625,0.15625 -0.09375,0.5625 -0.1875,0.625 C 3.046875,-0.59375 2.515625,-0.59375 2.40625,-0.59375 H 1.125 c 0.734375,-0.640625 0.984375,-0.84375 1.390625,-1.171875 0.515625,-0.40625 1,-0.84375 1,-1.5 0,-0.84375 -0.734375,-1.359375 -1.625,-1.359375 -0.859375,0 -1.453125,0.609375 -1.453125,1.25 0,0.34375 0.296875,0.390625 0.375,0.390625 0.15625,0 0.359375,-0.125 0.359375,-0.375 0,-0.125 -0.046875,-0.375 -0.40625,-0.375 C 0.984375,-4.21875 1.453125,-4.375 1.78125,-4.375 c 0.703125,0 1.0625,0.546875 1.0625,1.109375 0,0.609375 -0.4375,1.078125 -0.65625,1.328125 L 0.515625,-0.265625 C 0.4375,-0.203125 0.4375,-0.1875 0.4375,0 h 2.875 z m 0,0"
   id="path1214" />
      </g></g></g><g
     id="g734"
     transform="translate(418.30623,-543.02602)"><g
       id="g8058"
       transform="matrix(0.83693492,0,0,0.83693492,-133.28979,614.82685)"
       ns3:version="1.12.0"
       ns3:texconverter="pdflatex"
       ns3:pdfconverter="inkscape"
       ns3:text="$U_2$"
       ns3:preamble="C:\Users\mnumair\AppData\Roaming\inkscape\extensions\textext\default_packages.tex"
       ns3:scale="1.0"
       ns3:alignment="middle center"
       ns3:inkscapeversion="1.4"
       ns3:jacobian_sqrt="0.352778"><defs
   id="defs8478" />
  <g
   fill="#000000"
   fill-opacity="1"
   id="g5585"
   transform="translate(-149.384,-127.953)">
    <g
   transform="translate(148.712,134.765)"
   id="g7012"><path
   d="M 6.328125,-5.765625 C 6.4375,-6.171875 6.609375,-6.46875 7.40625,-6.5 c 0.046875,0 0.171875,-0.015625 0.171875,-0.203125 0,0 0,-0.109375 -0.125,-0.109375 -0.328125,0 -0.6875,0.03125 -1.015625,0.03125 -0.34375,0 -0.71875,-0.03125 -1.046875,-0.03125 -0.0625,0 -0.171875,0 -0.171875,0.203125 C 5.21875,-6.5 5.3125,-6.5 5.390625,-6.5 c 0.578125,0.015625 0.6875,0.21875 0.6875,0.4375 0,0.03125 -0.03125,0.1875 -0.03125,0.203125 l -0.90625,3.5625 C 4.8125,-0.953125 3.65625,-0.09375 2.65625,-0.09375 c -0.671875,0 -1.203125,-0.4375 -1.203125,-1.296875 0,-0.015625 0,-0.328125 0.109375,-0.765625 L 2.515625,-6.046875 C 2.609375,-6.40625 2.625,-6.5 3.359375,-6.5 c 0.265625,0 0.34375,0 0.34375,-0.203125 0,-0.109375 -0.109375,-0.109375 -0.140625,-0.109375 -0.28125,0 -1,0.03125 -1.28125,0.03125 -0.28125,0 -1,-0.03125 -1.28125,-0.03125 -0.078125,0 -0.1875,0 -0.1875,0.203125 C 0.8125,-6.5 0.890625,-6.5 1.09375,-6.5 c 0.015625,0 0.203125,0 0.375,0.015625 0.171875,0.03125 0.265625,0.03125 0.265625,0.171875 0,0.046875 -0.109375,0.46875 -0.171875,0.703125 l -0.21875,0.875 C 1.25,-4.34375 0.78125,-2.46875 0.734375,-2.265625 0.671875,-2 0.671875,-1.84375 0.671875,-1.6875 c 0,1.203125 0.90625,1.90625 1.953125,1.90625 1.25,0 2.484375,-1.125 2.8125,-2.4375 z m 0,0"
   id="path6979" />
      </g></g>
  <g
   fill="#000000"
   fill-opacity="1"
   id="g9901"
   transform="translate(-149.384,-127.953)">
    <g
   transform="translate(155.515,136.259)"
   id="g4735"><path
   d="M 3.515625,-1.265625 H 3.28125 c -0.015625,0.15625 -0.09375,0.5625 -0.1875,0.625 C 3.046875,-0.59375 2.515625,-0.59375 2.40625,-0.59375 H 1.125 c 0.734375,-0.640625 0.984375,-0.84375 1.390625,-1.171875 0.515625,-0.40625 1,-0.84375 1,-1.5 0,-0.84375 -0.734375,-1.359375 -1.625,-1.359375 -0.859375,0 -1.453125,0.609375 -1.453125,1.25 0,0.34375 0.296875,0.390625 0.375,0.390625 0.15625,0 0.359375,-0.125 0.359375,-0.375 0,-0.125 -0.046875,-0.375 -0.40625,-0.375 C 0.984375,-4.21875 1.453125,-4.375 1.78125,-4.375 c 0.703125,0 1.0625,0.546875 1.0625,1.109375 0,0.609375 -0.4375,1.078125 -0.65625,1.328125 L 0.515625,-0.265625 C 0.4375,-0.203125 0.4375,-0.1875 0.4375,0 h 2.875 z m 0,0"
   id="path6712" />
      </g></g>
</g><path
       style="fill:none;fill-opacity:1;stroke:#696969;stroke-width:1;stroke-linecap:round;stroke-linejoin:round;stroke-dasharray:none;stroke-opacity:1;marker-start:url(#DartArrow)"
       d="m -608.73224,-139.20418 a 30,30 0 0 1 -20,0"
       id="path386"
       transform="rotate(-90)" /></g><g
     id="g735"
     transform="translate(418.30623,-545.57082)"><g
       id="g384"
       transform="matrix(2.0901937,0,0,2.0901937,489.22311,-310.57196)"><g
         fill="#000000"
         fill-opacity="1"
         id="g9743"
         transform="matrix(0.352778,0,0,0.352778,-483.94322,398.46836)">
    <g
   transform="translate(148.712,134.765)"
   id="g7594"><path
   d="M 6.328125,-5.765625 C 6.4375,-6.171875 6.609375,-6.46875 7.40625,-6.5 c 0.046875,0 0.171875,-0.015625 0.171875,-0.203125 0,0 0,-0.109375 -0.125,-0.109375 -0.328125,0 -0.6875,0.03125 -1.015625,0.03125 -0.34375,0 -0.71875,-0.03125 -1.046875,-0.03125 -0.0625,0 -0.171875,0 -0.171875,0.203125 C 5.21875,-6.5 5.3125,-6.5 5.390625,-6.5 c 0.578125,0.015625 0.6875,0.21875 0.6875,0.4375 0,0.03125 -0.03125,0.1875 -0.03125,0.203125 l -0.90625,3.5625 C 4.8125,-0.953125 3.65625,-0.09375 2.65625,-0.09375 c -0.671875,0 -1.203125,-0.4375 -1.203125,-1.296875 0,-0.015625 0,-0.328125 0.109375,-0.765625 L 2.515625,-6.046875 C 2.609375,-6.40625 2.625,-6.5 3.359375,-6.5 c 0.265625,0 0.34375,0 0.34375,-0.203125 0,-0.109375 -0.109375,-0.109375 -0.140625,-0.109375 -0.28125,0 -1,0.03125 -1.28125,0.03125 -0.28125,0 -1,-0.03125 -1.28125,-0.03125 -0.078125,0 -0.1875,0 -0.1875,0.203125 C 0.8125,-6.5 0.890625,-6.5 1.09375,-6.5 c 0.015625,0 0.203125,0 0.375,0.015625 0.171875,0.03125 0.265625,0.03125 0.265625,0.171875 0,0.046875 -0.109375,0.46875 -0.171875,0.703125 l -0.21875,0.875 C 1.25,-4.34375 0.78125,-2.46875 0.734375,-2.265625 0.671875,-2 0.671875,-1.84375 0.671875,-1.6875 c 0,1.203125 0.90625,1.90625 1.953125,1.90625 1.25,0 2.484375,-1.125 2.8125,-2.4375 z m 0,0"
   id="path4916" />
      </g></g><g
         fill="#000000"
         fill-opacity="1"
         id="g4103"
         transform="matrix(0.352778,0,0,0.352778,-483.94322,398.46836)">
    <g
   transform="translate(155.515,136.259)"
   id="g2443"><path
   d="m 2.328125,-4.4375 c 0,-0.1875 0,-0.1875 -0.203125,-0.1875 -0.453125,0.4375 -1.078125,0.4375 -1.359375,0.4375 v 0.25 c 0.15625,0 0.625,0 1,-0.1875 v 3.546875 c 0,0.234375 0,0.328125 -0.6875,0.328125 H 0.8125 V 0 c 0.125,0 0.984375,-0.03125 1.234375,-0.03125 0.21875,0 1.09375,0.03125 1.25,0.03125 V -0.25 H 3.03125 c -0.703125,0 -0.703125,-0.09375 -0.703125,-0.328125 z m 0,0"
   id="path1440" />
      </g></g></g><path
       style="fill:none;fill-opacity:1;stroke:#696969;stroke-width:1;stroke-linecap:round;stroke-linejoin:round;stroke-dasharray:none;stroke-opacity:1;marker-start:url(#DartArrow)"
       d="m -611.27704,397.38312 a 30,30 0 0 1 -20,0"
       id="path387"
       transform="matrix(0,-1,-1,0,0,0)" /></g><path
     style="fill:none;fill-opacity:1;stroke:#228b22;stroke-width:0.681262;stroke-linecap:square;stroke-linejoin:miter;stroke-miterlimit:0;stroke-dasharray:1.36252, 1.36252;stroke-dashoffset:0;marker-mid:url(#ArrowWideRounded);marker-end:url(#marker71);paint-order:stroke markers fill"
     d="m 94.571278,69.57863 c 1.75073,-45.99955 0.86496,-53.01733 12.777092,-52.88741 11.91221,0.13003 82.92984,-2.08634 89.64213,2.29315 2.32439,1.51659 4.86452,23.60918 5.86758,46.6827 1.12062,25.77661 0.50472,52.77744 -0.78201,53.68229 -5.08557,3.57617 -105.977152,4.59939 -105.977152,-2.0905 0,-6.68991 -1.52764,-47.68023 -1.52764,-47.68023 z"
     id="path766" /></svg>
